<svg width="18" height="18" viewBox="0 0 18 18" fill="none" xmlns="http://www.w3.org/2000/svg">
<path d="M2.10852 6.23291C2.31157 6.02992 2.58692 5.91589 2.87403 5.91589C3.16113 5.91589 3.43649 6.02992 3.63953 6.23291L8.99916 11.5925L14.3588 6.23291C14.563 6.03568 14.8365 5.92654 15.1204 5.92901C15.4043 5.93147 15.6759 6.04535 15.8766 6.2461C16.0774 6.44685 16.1912 6.71842 16.1937 7.00231C16.1962 7.28621 16.087 7.55971 15.8898 7.76392L9.76467 13.8891C9.56162 14.092 9.28627 14.2061 8.99916 14.2061C8.71205 14.2061 8.4367 14.092 8.23366 13.8891L2.10852 7.76392C1.90553 7.56088 1.7915 7.28552 1.7915 6.99842C1.7915 6.71131 1.90553 6.43596 2.10852 6.23291Z" fill="#707070"/>
</svg>
