<svg width="39" height="23" viewBox="0 0 39 23" fill="none" xmlns="http://www.w3.org/2000/svg">
<path d="M30.3678 16.9227C30.2716 16.9227 30.1898 16.8939 30.1224 16.8361C30.0646 16.7687 30.0358 16.6869 30.0358 16.5907V16.1287C30.0358 16.0421 30.0598 15.9458 30.108 15.84C30.1561 15.7341 30.2523 15.6186 30.3967 15.4935L33.4573 12.4329C33.9481 12.0191 34.3331 11.6678 34.6122 11.379C34.9009 11.0807 35.1031 10.7968 35.2185 10.5273C35.3437 10.2578 35.4062 9.97867 35.4062 9.68994C35.4062 9.14134 35.2522 8.70824 34.9443 8.39063C34.6363 8.0634 34.1791 7.89978 33.5728 7.89978C33.1878 7.89978 32.8557 7.98159 32.5766 8.14521C32.2975 8.2992 32.0762 8.51575 31.9125 8.79486C31.7585 9.06435 31.6575 9.37233 31.6094 9.71881C31.5901 9.84393 31.5372 9.93055 31.4506 9.97867C31.3736 10.0268 31.3014 10.0509 31.234 10.0509H30.4833C30.3967 10.0509 30.3245 10.0268 30.2668 9.97867C30.209 9.92092 30.1801 9.85355 30.1801 9.77656C30.1898 9.41083 30.2668 9.0451 30.4111 8.67937C30.5555 8.30401 30.7672 7.96716 31.0463 7.6688C31.3351 7.37044 31.6864 7.12983 32.1002 6.94696C32.5237 6.75447 33.0145 6.65823 33.5728 6.65823C34.3331 6.65823 34.9539 6.79778 35.4351 7.07689C35.9259 7.34638 36.2869 7.70729 36.5179 8.15964C36.7488 8.612 36.8643 9.10766 36.8643 9.64663C36.8643 10.0701 36.7921 10.4599 36.6478 10.816C36.5034 11.1625 36.2917 11.5042 36.0126 11.841C35.7431 12.1682 35.4062 12.5051 35.002 12.8516L32.2301 15.6667H36.7344C36.8403 15.6667 36.9221 15.6956 36.9798 15.7534C37.0472 15.8111 37.0809 15.8929 37.0809 15.9988V16.5907C37.0809 16.6869 37.0472 16.7687 36.9798 16.8361C36.9221 16.8939 36.8403 16.9227 36.7344 16.9227H30.3678Z" fill="#707070"/>
<path d="M19.1896 12.2092C19.5448 11.7397 19.7415 11.1645 19.7415 10.566C19.7415 9.61653 19.2107 8.71776 18.3563 8.21656C18.1364 8.08755 17.886 8.01965 17.631 8.01989H12.5598L12.6867 5.42086C12.7163 4.79278 12.4943 4.19642 12.0628 3.74174C11.8511 3.51764 11.5957 3.33933 11.3123 3.21785C11.029 3.09636 10.7237 3.03427 10.4154 3.03542C9.31578 3.03542 8.34299 3.77558 8.05116 4.83507L6.23458 11.412H3.50021C3.1259 11.412 2.82349 11.7144 2.82349 12.0887V19.7864C2.82349 20.1607 3.1259 20.4631 3.50021 20.4631H16.2162C16.4108 20.4631 16.6011 20.425 16.7766 20.3489C17.7832 19.9196 18.4325 18.9362 18.4325 17.845C18.4325 17.5786 18.3944 17.3163 18.3183 17.0626C18.6736 16.5931 18.8702 16.0179 18.8702 15.4194C18.8702 15.1529 18.8322 14.8907 18.756 14.6369C19.1113 14.1675 19.308 13.5923 19.308 12.9938C19.3038 12.7273 19.2657 12.463 19.1896 12.2092ZM4.34611 18.9405V12.9346H6.05906V18.9405H4.34611ZM17.8044 11.4754L17.3413 11.8772L17.6352 12.4143C17.7321 12.5913 17.7823 12.79 17.7811 12.9917C17.7811 13.3406 17.6289 13.6726 17.3666 13.901L16.9035 14.3028L17.1975 14.84C17.2943 15.0169 17.3445 15.2156 17.3434 15.4173C17.3434 15.7662 17.1911 16.0982 16.9289 16.3266L16.4658 16.7284L16.7597 17.2656C16.8565 17.4425 16.9068 17.6412 16.9056 17.8429C16.9056 18.3166 16.6265 18.7438 16.1951 18.9384H7.4125V12.8669L9.51668 5.24322C9.57094 5.04782 9.68741 4.87542 9.84845 4.75216C10.0095 4.62891 10.2063 4.5615 10.4091 4.56015C10.5698 4.56015 10.7284 4.60668 10.8553 4.70184C11.0647 4.85833 11.1768 5.09518 11.1641 5.34684L10.9611 9.54251H17.6098C17.9863 9.77302 18.2189 10.1621 18.2189 10.566C18.2189 10.915 18.0666 11.2449 17.8044 11.4754Z" fill="#FE8235"/>
</svg>
