<svg width="73" height="92" viewBox="0 0 73 92" fill="none" xmlns="http://www.w3.org/2000/svg">
<g filter="url(#filter0_d_101_140)">
<rect x="4.31836" y="0.785034" width="64.0971" height="67.1985" rx="17.3241" fill="#F09E54"/>
</g>
<path d="M18.1848 88.1644L20.7444 78.5626H22.9597L25.4934 88.1644H24.0446L21.8423 79.4526H21.8553L19.64 88.1644H18.1848ZM19.666 85.7282V84.5589H24.0316V85.7282H19.666ZM31.7861 88.1644V84.9811C31.7861 84.7949 31.7861 84.6368 31.7861 84.5069C31.7861 84.377 31.7861 84.2557 31.7861 84.1431C31.7861 83.8053 31.7341 83.5086 31.6301 83.2531C31.5262 82.9932 31.3551 82.7918 31.1169 82.6489C30.8787 82.5016 30.5604 82.428 30.1619 82.428C29.8111 82.428 29.4928 82.5146 29.2069 82.6879C28.9254 82.8611 28.7002 83.0971 28.5313 83.396C28.3667 83.6905 28.2844 84.0261 28.2844 84.4029L27.6803 84.1041C27.6803 83.5454 27.8124 83.0452 28.0765 82.6034C28.3407 82.1573 28.6937 81.8043 29.1355 81.5445C29.5816 81.2846 30.0688 81.1547 30.5972 81.1547C31.1429 81.1547 31.6085 81.2608 31.9939 81.473C32.3837 81.6809 32.6804 81.9797 32.884 82.3695C33.0919 82.755 33.1958 83.2162 33.1958 83.7533C33.1958 83.9525 33.1958 84.1734 33.1958 84.4159C33.1958 84.6585 33.1958 84.8923 33.1958 85.1176V88.1644H31.7861ZM26.8747 88.1644V81.2651H28.2844V88.1644H26.8747ZM39.498 87.6122C39.8878 87.6469 40.23 87.7205 40.5245 87.8331C40.819 87.9414 41.0485 88.1016 41.2131 88.3138C41.382 88.5304 41.4665 88.8141 41.4665 89.1649C41.4665 89.559 41.3322 89.9012 41.0637 90.1913C40.7995 90.4859 40.4032 90.7132 39.8748 90.8735C39.3465 91.0381 38.6903 91.1203 37.9064 91.1203C36.7847 91.1203 35.9293 90.9579 35.3403 90.6331C34.7512 90.3083 34.4567 89.8665 34.4567 89.3078C34.4567 89.1389 34.4762 88.9895 34.5152 88.8596C34.5542 88.7296 34.6018 88.6214 34.6581 88.5347L35.9704 88.7296C35.9401 88.7729 35.9098 88.8357 35.8795 88.918C35.8492 89.0046 35.834 89.1086 35.834 89.2299C35.834 89.5374 36.0224 89.7561 36.3992 89.886C36.776 90.0159 37.2979 90.0809 37.9649 90.0809C38.4543 90.0809 38.8592 90.0463 39.1797 89.977C39.5045 89.912 39.7471 89.8167 39.9073 89.6911C40.0676 89.5655 40.1477 89.4183 40.1477 89.2493C40.1477 88.9938 40.0372 88.8336 39.8164 88.7686C39.5955 88.7036 39.3291 88.6582 39.0173 88.6322L36.3992 88.4178C35.9444 88.3788 35.572 88.2424 35.2818 88.0085C34.9959 87.7746 34.853 87.4801 34.853 87.125C34.853 86.9041 34.9093 86.6984 35.0219 86.5078C35.1345 86.3173 35.2645 86.157 35.4117 86.0271C35.5633 85.8971 35.6932 85.817 35.8015 85.7867L36.724 86.2285C36.6244 86.2415 36.5031 86.3086 36.3602 86.4299C36.2216 86.5468 36.1523 86.6854 36.1523 86.8456C36.1523 86.9929 36.213 87.1142 36.3342 87.2094C36.4598 87.3047 36.7024 87.3675 37.0618 87.3978L39.498 87.6122ZM40.3621 81.2651H41.6419L41.1157 83.9612C41.0204 84.4636 40.845 84.9183 40.5895 85.3254C40.3383 85.7282 39.9961 86.0466 39.563 86.2804C39.1342 86.5143 38.5994 86.6312 37.9584 86.6312C37.2914 86.6312 36.7175 86.5165 36.2368 86.2869C35.756 86.0574 35.3857 85.7391 35.1259 85.3319C34.8703 84.9205 34.7426 84.4527 34.7426 83.9287C34.7426 83.396 34.8747 82.9196 35.1389 82.4995C35.4074 82.0794 35.7755 81.7502 36.2433 81.512C36.7154 81.2738 37.2546 81.1547 37.8609 81.1547C38.372 81.1547 38.8246 81.2413 39.2187 81.4145C39.6171 81.5878 39.9333 81.8087 40.1672 82.0772C40.4011 82.3457 40.5288 82.6251 40.5505 82.9152L40.1477 82.9607L40.3621 81.2651ZM37.9519 85.4814C38.3287 85.4814 38.6535 85.4207 38.9263 85.2995C39.1992 85.1739 39.4093 84.9941 39.5565 84.7603C39.7038 84.522 39.7774 84.2362 39.7774 83.9027C39.7774 83.5736 39.7038 83.292 39.5565 83.0582C39.4093 82.82 39.1992 82.6381 38.9263 82.5125C38.6535 82.3825 38.3308 82.3176 37.9584 82.3176C37.5989 82.3176 37.2806 82.3847 37.0034 82.519C36.7305 82.6489 36.5161 82.833 36.3602 83.0712C36.2043 83.3094 36.1263 83.593 36.1263 83.9222C36.1263 84.2514 36.2 84.5329 36.3472 84.7667C36.4945 84.9963 36.7045 85.1739 36.9774 85.2995C37.2502 85.4207 37.5751 85.4814 37.9519 85.4814ZM42.9764 88.1644V81.2651H44.3862V83.4674L44.0094 83.2985C44.0397 83.017 44.1111 82.7485 44.2237 82.493C44.3364 82.2374 44.4858 82.0101 44.672 81.8108C44.8626 81.6073 45.0964 81.447 45.3736 81.3301C45.6508 81.2132 45.9713 81.1547 46.3351 81.1547C46.6123 81.1547 46.8354 81.1763 47.0043 81.2196C47.1775 81.263 47.2836 81.2976 47.3226 81.3236L47.0237 82.6489C46.9804 82.6186 46.8917 82.5796 46.7574 82.5319C46.6275 82.4843 46.4456 82.4605 46.2117 82.4605C45.8565 82.4605 45.562 82.5233 45.3282 82.6489C45.0943 82.7745 44.908 82.9412 44.7695 83.1491C44.6309 83.357 44.5313 83.5844 44.4706 83.8312C44.4143 84.0738 44.3862 84.3185 44.3862 84.5654V88.1644H42.9764ZM48.7892 91.1009C48.6029 91.1009 48.4319 91.09 48.276 91.0684C48.1244 91.051 48.0313 91.0337 47.9966 91.0164V89.8665C48.0529 89.8925 48.146 89.9142 48.276 89.9315C48.4102 89.9488 48.5488 89.9575 48.6917 89.9575C48.9473 89.9575 49.166 89.9055 49.3479 89.8016C49.5341 89.6976 49.69 89.5525 49.8156 89.3663C49.9456 89.1844 50.0495 88.9765 50.1275 88.7426L50.3029 88.2229L47.9251 81.2651H49.3934L51.1669 87.112H50.985L52.7131 81.2651H54.1618L51.6866 88.6712C51.535 89.1346 51.3488 89.5482 51.1279 89.912C50.907 90.2801 50.6125 90.5703 50.2444 90.7825C49.8763 90.9947 49.3912 91.1009 48.7892 91.1009Z" fill="#828282"/>
<g clip-path="url(#clip0_101_140)">
<path d="M54.0802 34.8688C54.0802 44.5362 46.2451 52.3713 36.5777 52.3713C26.9103 52.3713 19.0752 44.5362 19.0752 34.8688C19.0752 25.2014 26.9103 17.3663 36.5777 17.3663C46.2451 17.3663 54.0802 25.2014 54.0802 34.8688ZM42.3139 42.8885C41.2131 41.6647 39.292 40.3384 36.5777 40.3384C33.8634 40.3384 31.9423 41.6647 30.8415 42.8885C30.4382 43.3398 30.4723 43.9688 30.9236 44.4337C31.3748 44.8371 32.0038 44.8029 32.4687 44.3516C33.2686 43.4628 34.6292 42.5262 36.5162 42.5262C38.5262 42.5262 39.8868 43.4628 40.6867 44.3516C41.0901 44.8029 41.7806 44.8371 42.2318 44.4337C42.6831 43.9688 42.7173 43.3398 42.3139 42.8885ZM31.1355 35.9627C32.3388 35.9627 33.3233 34.9851 33.3233 33.7749C33.3233 33.6724 33.3165 33.5698 33.3028 33.4741L34.0412 33.7202C34.6155 33.8501 35.2377 33.5972 35.4291 33.0297C35.559 32.4554 35.306 31.8332 34.7386 31.6418L28.1751 29.454C27.6008 29.2626 26.9787 29.5771 26.7872 30.1445C26.5958 30.7188 26.9103 31.341 27.4778 31.5324L29.5835 32.2298C29.187 32.6263 28.9477 33.1733 28.9477 33.7749C28.9477 34.9851 29.9254 35.9627 31.1355 35.9627ZM43.6129 32.2161L45.6776 31.5324C46.2451 31.341 46.4981 30.7188 46.3682 30.1445C46.1767 29.5771 45.5546 29.2626 44.9803 29.454L38.4168 31.6418C37.8494 31.8332 37.5349 32.4554 37.7263 33.0297C37.9177 33.5972 38.5399 33.8501 39.1142 33.7202L39.9073 33.4536C39.8936 33.5562 39.8868 33.6655 39.8868 33.7749C39.8868 34.9851 40.8644 35.9627 42.0746 35.9627C43.2779 35.9627 44.2624 34.9851 44.2624 33.7749C44.2624 33.1664 44.0094 32.6127 43.6129 32.2161Z" fill="white"/>
</g>
<defs>
<filter id="filter0_d_101_140" x="0.458502" y="0.785034" width="71.8169" height="74.9183" filterUnits="userSpaceOnUse" color-interpolation-filters="sRGB">
<feFlood flood-opacity="0" result="BackgroundImageFix"/>
<feColorMatrix in="SourceAlpha" type="matrix" values="0 0 0 0 0 0 0 0 0 0 0 0 0 0 0 0 0 0 127 0" result="hardAlpha"/>
<feOffset dy="3.85986"/>
<feGaussianBlur stdDeviation="1.92993"/>
<feComposite in2="hardAlpha" operator="out"/>
<feColorMatrix type="matrix" values="0 0 0 0 0.941176 0 0 0 0 0.619608 0 0 0 0 0.329412 0 0 0 0.15 0"/>
<feBlend mode="normal" in2="BackgroundImageFix" result="effect1_dropShadow_101_140"/>
<feBlend mode="normal" in="SourceGraphic" in2="effect1_dropShadow_101_140" result="shape"/>
</filter>
<clipPath id="clip0_101_140">
<rect width="35.005" height="35.005" fill="white" transform="translate(19.0752 17.3663)"/>
</clipPath>
</defs>
</svg>
