<svg width="17" height="21" viewBox="0 0 17 21" fill="none" xmlns="http://www.w3.org/2000/svg">
<path d="M9.80238 20.4844H3.0098C2.22036 20.4836 1.46351 20.1791 0.905289 19.6378C0.347073 19.0965 0.0330886 18.3626 0.0322266 17.5971V3.16038C0.0330886 2.39487 0.347073 1.66095 0.905289 1.11965C1.46351 0.578346 2.22036 0.273876 3.0098 0.273039H9.80238V20.4844ZM13.4313 20.4844H12.5939V0.273039H13.4313C14.2207 0.273876 14.9776 0.578346 15.5358 1.11965C16.094 1.66095 16.408 2.39487 16.4089 3.16038V17.5971C16.408 18.3626 16.094 19.0965 15.5358 19.6378C14.9776 20.1791 14.2207 20.4836 13.4313 20.4844Z" fill="#D6CCC6"/>
</svg>
