<svg width="27" height="23" viewBox="0 0 27 23" fill="none" xmlns="http://www.w3.org/2000/svg">
<g clip-path="url(#clip0_101_57)">
<path d="M14.9771 13.2688V19.1748C14.9771 19.995 15.2686 20.6923 15.8517 21.2664C16.4347 21.8406 17.1426 22.1277 17.9755 22.1277H23.9723C24.8052 22.1277 25.5132 21.8406 26.0962 21.2664C26.6792 20.6923 26.9707 19.995 26.9707 19.1748V8.34723C26.9707 7.28088 26.7599 6.26323 26.3382 5.29429C25.9166 4.32535 25.3466 3.48714 24.6282 2.77966C23.9098 2.07218 23.0587 1.51081 22.0749 1.09555C21.091 0.680287 20.0577 0.472656 18.975 0.472656H17.9755C17.7048 0.472656 17.4706 0.570063 17.2728 0.764877C17.075 0.95969 16.9761 1.19039 16.9761 1.45698V3.42562C16.9761 3.69221 17.075 3.92291 17.2728 4.11772C17.4706 4.31253 17.7048 4.40994 17.9755 4.40994H18.975C20.0786 4.40994 21.0208 4.79444 21.8016 5.56344C22.5824 6.33244 22.9728 7.26037 22.9728 8.34723V8.83939C22.9728 9.24952 22.8271 9.59813 22.5356 9.88523C22.2441 10.1723 21.8901 10.3159 21.4736 10.3159H17.9755C17.1426 10.3159 16.4347 10.603 15.8517 11.1771C15.2686 11.7513 14.9771 12.4486 14.9771 13.2688ZM0.984621 13.2688V19.1748C0.984621 19.995 1.27613 20.6923 1.85915 21.2664C2.44217 21.8406 3.15013 22.1277 3.98302 22.1277H9.9798C10.8127 22.1277 11.5206 21.8406 12.1037 21.2664C12.6867 20.6923 12.9782 19.995 12.9782 19.1748V8.34723C12.9782 7.28088 12.7674 6.26323 12.3457 5.29429C11.9241 4.32535 11.3541 3.48714 10.6357 2.77966C9.91734 2.07218 9.06623 1.51081 8.08238 1.09555C7.09853 0.680287 6.06523 0.472656 4.98248 0.472656H3.98302C3.71233 0.472656 3.47808 0.570063 3.28027 0.764877C3.08246 0.95969 2.98355 1.19039 2.98355 1.45698V3.42562C2.98355 3.69221 3.08246 3.92291 3.28027 4.11772C3.47808 4.31253 3.71233 4.40994 3.98302 4.40994H4.98248C6.08606 4.40994 7.02826 4.79444 7.80909 5.56344C8.58992 6.33244 8.98034 7.26037 8.98034 8.34723V8.83939C8.98034 9.24952 8.83458 9.59813 8.54307 9.88523C8.25156 10.1723 7.89758 10.3159 7.48114 10.3159H3.98302C3.15013 10.3159 2.44217 10.603 1.85915 11.1771C1.27613 11.7513 0.984621 12.4486 0.984621 13.2688Z" fill="#D9D8D8"/>
</g>
<defs>
<clipPath id="clip0_101_57">
<rect width="25.9861" height="21.6551" fill="white" transform="matrix(-1 0 0 1 26.9707 0.472656)"/>
</clipPath>
</defs>
</svg>
