<svg width="27" height="27" viewBox="0 0 27 27" fill="none" xmlns="http://www.w3.org/2000/svg">
<path d="M21.2816 3.35583H6.12303C4.932 3.35583 3.95752 4.33031 3.95752 5.52134V20.6799C3.95752 21.8709 4.932 22.8454 6.12303 22.8454H21.2816C22.4726 22.8454 23.4471 21.8709 23.4471 20.6799V5.52134C23.4471 4.33031 22.4726 3.35583 21.2816 3.35583ZM14.7851 18.5144H9.37129C8.77577 18.5144 8.28853 18.0271 8.28853 17.4316C8.28853 16.8361 8.77577 16.3489 9.37129 16.3489H14.7851C15.3806 16.3489 15.8678 16.8361 15.8678 17.4316C15.8678 18.0271 15.3806 18.5144 14.7851 18.5144ZM18.0333 14.1834H9.37129C8.77577 14.1834 8.28853 13.6961 8.28853 13.1006C8.28853 12.5051 8.77577 12.0179 9.37129 12.0179H18.0333C18.6288 12.0179 19.1161 12.5051 19.1161 13.1006C19.1161 13.6961 18.6288 14.1834 18.0333 14.1834ZM18.0333 9.85236H9.37129C8.77577 9.85236 8.28853 9.36512 8.28853 8.7696C8.28853 8.17409 8.77577 7.68685 9.37129 7.68685H18.0333C18.6288 7.68685 19.1161 8.17409 19.1161 8.7696C19.1161 9.36512 18.6288 9.85236 18.0333 9.85236Z" fill="#D6CCC6"/>
</svg>
