<svg width="20" height="20" viewBox="0 0 20 20" fill="none" xmlns="http://www.w3.org/2000/svg">
<g clip-path="url(#clip0_101_442)">
<path d="M11.2732 15.4473C14.2976 15.4473 15.8103 15.4473 16.7495 14.5073C17.6895 13.5681 17.6895 12.0554 17.6895 9.03094C17.6895 6.00645 17.6895 4.4938 16.7495 3.55461C15.8103 2.61462 14.2976 2.61462 11.2732 2.61462H8.065C5.04051 2.61462 3.52786 2.61462 2.58867 3.55461C1.64868 4.4938 1.64868 6.00645 1.64868 9.03094C1.64868 12.0554 1.64868 13.5681 2.58867 14.5073C3.1124 15.0318 3.81419 15.2636 4.85684 15.3655" stroke="#D9D8D8" stroke-width="1.60408" stroke-linecap="round" stroke-linejoin="round"/>
<path d="M11.2731 15.4473C10.2817 15.4473 9.18936 15.8483 8.19243 16.3657C6.58995 17.1974 5.78871 17.6136 5.39411 17.3482C4.99951 17.0835 5.0741 16.2614 5.22408 14.618L5.25776 14.2443" stroke="#D9D8D8" stroke-width="1.60408" stroke-linecap="round"/>
</g>
<defs>
<clipPath id="clip0_101_442">
<rect width="19.249" height="19.249" fill="white" transform="translate(0.0444336 0.208618)"/>
</clipPath>
</defs>
</svg>
