<svg width="22" height="23" viewBox="0 0 22 23" fill="none" xmlns="http://www.w3.org/2000/svg">
<path d="M12.0389 7.28393V4.53193C12.0389 4.29263 12.134 4.06313 12.3032 3.89391C12.4724 3.7247 12.7019 3.62964 12.9412 3.62964C13.1779 3.63064 13.4047 3.72461 13.5728 3.8913L19.8889 10.2074C19.9734 10.2912 20.0406 10.391 20.0864 10.501C20.1322 10.6109 20.1558 10.7289 20.1558 10.848C20.1558 10.9671 20.1322 11.085 20.0864 11.195C20.0406 11.3049 19.9734 11.4047 19.8889 11.4886L13.5728 17.8047C13.4461 17.9288 13.2857 18.0129 13.1115 18.0464C12.9373 18.0799 12.7571 18.0613 12.5935 17.9929C12.4298 17.9246 12.2899 17.8095 12.1913 17.6621C12.0926 17.5146 12.0396 17.3414 12.0389 17.1641V14.3669H11.272C9.8464 14.3457 8.43329 14.6349 7.13072 15.2145C5.82814 15.7941 4.6673 16.6503 3.72877 17.7235C3.61567 17.8741 3.45828 17.9855 3.27867 18.0421C3.09907 18.0987 2.90624 18.0977 2.72722 18.0393C2.54504 17.9778 2.38727 17.8597 2.2769 17.7023C2.16653 17.5449 2.10934 17.3563 2.11366 17.1641C2.11366 8.93513 9.4042 7.52755 12.0389 7.28393ZM11.272 12.5443C11.8754 12.5424 12.4784 12.5816 13.0765 12.6616C13.2902 12.694 13.485 12.802 13.6258 12.9659C13.7665 13.1298 13.8438 13.3388 13.8435 13.5549V14.9895L17.976 10.848L13.8435 6.70646V8.14111C13.8435 8.38041 13.7484 8.60992 13.5792 8.77913C13.41 8.94834 13.1805 9.04341 12.9412 9.04341C12.1201 9.04341 5.62359 9.22387 4.21601 14.8452C6.25908 13.3388 8.73364 12.5319 11.272 12.5443Z" fill="#D6CCC6"/>
</svg>
