<svg width="24" height="29" viewBox="0 0 24 29" fill="none" xmlns="http://www.w3.org/2000/svg">
<path d="M16.0343 23.3913C16.0343 24.4251 15.6236 25.4166 14.8926 26.1476C14.1616 26.8786 13.1701 27.2892 12.1363 27.2892C11.1026 27.2892 10.1111 26.8786 9.38011 26.1476C8.64911 25.4166 8.23844 24.4251 8.23844 23.3913M13.0731 5.20497L11.1684 5.20107C6.82349 5.19068 3.05161 8.72089 3.02173 12.9969V17.9213C3.02173 18.9477 2.8918 19.9495 2.3318 20.8031L1.9589 21.3722C1.3911 22.2349 2.00178 23.3913 3.02173 23.3913H21.251C22.2709 23.3913 22.8803 22.2349 22.3138 21.3722L21.9409 20.8031C21.3822 19.9495 21.251 18.9464 21.251 17.92V12.9982C21.199 8.72089 17.418 5.21536 13.0731 5.20497Z" stroke="#573926" stroke-width="2.59861" stroke-linecap="round" stroke-linejoin="round"/>
<path d="M12.1363 1.3031C12.8255 1.3031 13.4865 1.57688 13.9738 2.06422C14.4612 2.55155 14.7349 3.21251 14.7349 3.90171V5.20101H9.53772V3.90171C9.53772 3.21251 9.8115 2.55155 10.2988 2.06422C10.7862 1.57688 11.4471 1.3031 12.1363 1.3031Z" stroke="#573926" stroke-width="2.59861" stroke-linecap="round" stroke-linejoin="round"/>
</svg>
