<svg width="16" height="16" viewBox="0 0 16 16" fill="none" xmlns="http://www.w3.org/2000/svg">
<path d="M7.92351 0.697632C3.74405 0.697632 0.344238 4.09776 0.344238 8.27691C0.344238 12.456 3.74405 15.8562 7.92351 15.8562C12.103 15.8562 15.5028 12.456 15.5028 8.27691C15.5028 4.09776 12.103 0.697632 7.92351 0.697632ZM10.9366 8.54245L6.51537 11.3847C6.46355 11.4183 6.40372 11.4349 6.34451 11.4349C6.2927 11.4349 6.24026 11.422 6.19339 11.3964C6.09161 11.3409 6.02869 11.2348 6.02869 11.1191V5.43468C6.02869 5.31903 6.09161 5.21292 6.19339 5.15741C6.29332 5.10252 6.41852 5.1059 6.51537 5.16914L10.9366 8.01136C11.0267 8.06933 11.0816 8.16958 11.0816 8.27691C11.0816 8.38423 11.0267 8.48445 10.9366 8.54245Z" fill="#FE8235"/>
</svg>
