<svg width="73" height="92" viewBox="0 0 73 92" fill="none" xmlns="http://www.w3.org/2000/svg">
<g filter="url(#filter0_d_101_125)">
<rect x="4.06885" y="0.785034" width="64.0971" height="67.1985" rx="17.3241" fill="#EF5DA8"/>
</g>
<path d="M24.1464 78.5821V88.1644H22.7366V83.4025L23.3733 83.9742H18.0851L18.7218 83.409V88.1644H17.312V78.5821H18.7218V83.3895L18.0851 82.7983H23.3733L22.7366 83.3895V78.5821H24.1464ZM28.3384 88.3009C27.8186 88.3009 27.3617 88.2186 26.9676 88.054C26.5778 87.8894 26.2746 87.6534 26.0581 87.3459C25.8415 87.0384 25.7333 86.6681 25.7333 86.235C25.7333 85.7715 25.8545 85.3882 26.0971 85.0851C26.3439 84.7819 26.6817 84.548 27.1105 84.3835C27.5436 84.2145 28.0352 84.1041 28.5852 84.0521C29.4038 83.9698 29.9798 83.8897 30.3133 83.8118C30.6511 83.7338 30.82 83.606 30.82 83.4285C30.82 83.4241 30.82 83.4198 30.82 83.4155C30.82 83.0647 30.6706 82.7983 30.3718 82.6164C30.0729 82.4345 29.6463 82.3435 29.092 82.3435C28.5073 82.3435 28.0547 82.4475 27.7342 82.6554C27.418 82.8589 27.2599 83.1838 27.2599 83.6299H25.8762C25.8762 83.1015 26.0126 82.6532 26.2855 82.2851C26.5626 81.9169 26.9438 81.6376 27.4288 81.447C27.9139 81.2521 28.4705 81.1547 29.0984 81.1547C29.6745 81.1547 30.1985 81.2435 30.6706 81.421C31.147 81.5943 31.526 81.8541 31.8075 82.2006C32.089 82.5471 32.2298 82.978 32.2298 83.4934C32.2298 83.5844 32.2298 83.6753 32.2298 83.7663C32.2298 83.8529 32.2298 83.9417 32.2298 84.0326V86.7872C32.2298 86.9474 32.2363 87.1033 32.2493 87.2549C32.2623 87.4022 32.2861 87.5343 32.3207 87.6512C32.3597 87.7855 32.4052 87.8959 32.4572 87.9825C32.5135 88.0691 32.5589 88.1298 32.5936 88.1644H31.1903C31.1643 88.1384 31.1254 88.0843 31.0734 88.002C31.0258 87.9154 30.9824 87.8158 30.9435 87.7032C30.9045 87.5949 30.8742 87.4715 30.8525 87.3329C30.8352 87.19 30.8265 87.0362 30.8265 86.8716L31.0864 87.0535C30.9565 87.3047 30.7594 87.5234 30.4952 87.7097C30.2353 87.8959 29.9213 88.041 29.5532 88.1449C29.1894 88.2489 28.7845 88.3009 28.3384 88.3009ZM28.6307 87.1315C29.0335 87.1315 29.3995 87.0687 29.7286 86.9431C30.0621 86.8132 30.3285 86.6183 30.5277 86.3584C30.7269 86.0942 30.8265 85.7629 30.8265 85.3644V84.221L31.1578 84.6563C30.8807 84.7646 30.5407 84.8534 30.1379 84.9227C29.7394 84.9876 29.328 85.0418 28.9036 85.0851C28.3189 85.1371 27.8793 85.2388 27.5848 85.3904C27.2903 85.5377 27.143 85.7845 27.143 86.131C27.143 86.4645 27.2643 86.7157 27.5068 86.8846C27.7537 87.0492 28.1283 87.1315 28.6307 87.1315ZM33.9414 91.0034V81.2651H35.3511V91.0034H33.9414ZM37.573 88.3009C37.0359 88.3009 36.5378 88.1666 36.0788 87.8981C35.6197 87.6252 35.2472 87.2528 34.9614 86.7807C34.6798 86.3086 34.5391 85.7737 34.5391 85.176C34.5391 85.1587 34.5391 85.1457 34.5391 85.1371C34.5391 85.1241 34.5391 85.1111 34.5391 85.0981L35.3576 85.0786C35.3576 85.0872 35.3576 85.0981 35.3576 85.1111C35.3576 85.1197 35.3576 85.1306 35.3576 85.1435C35.3576 85.4987 35.4486 85.8192 35.6305 86.105C35.8167 86.3865 36.0571 86.6096 36.3516 86.7742C36.6461 86.9388 36.9623 87.021 37.3001 87.021C37.8545 87.021 38.3201 86.8326 38.6969 86.4558C39.078 86.0747 39.2685 85.49 39.2685 84.7018C39.2685 83.9092 39.0802 83.3267 38.7034 82.9542C38.3266 82.5774 37.8588 82.389 37.3001 82.389C36.9623 82.389 36.6461 82.4713 36.3516 82.6359C36.0571 82.7961 35.8167 83.017 35.6305 83.2985C35.4486 83.5757 35.3576 83.894 35.3576 84.2535L34.5391 84.221C34.5391 83.619 34.6798 83.0885 34.9614 82.6294C35.2472 82.166 35.6197 81.8043 36.0788 81.5445C36.5378 81.2846 37.0359 81.1547 37.573 81.1547C38.1317 81.1547 38.6492 81.2933 39.1256 81.5705C39.602 81.8433 39.9853 82.2439 40.2755 82.7723C40.57 83.3007 40.7173 83.9439 40.7173 84.7018C40.7173 85.477 40.5743 86.1332 40.2885 86.6702C40.0027 87.2073 39.6215 87.6144 39.1451 87.8916C38.6687 88.1644 38.1447 88.3009 37.573 88.3009ZM42.2778 91.0034V81.2651H43.6875V91.0034H42.2778ZM45.9093 88.3009C45.3723 88.3009 44.8742 88.1666 44.4151 87.8981C43.956 87.6252 43.5836 87.2528 43.2977 86.7807C43.0162 86.3086 42.8754 85.7737 42.8754 85.176C42.8754 85.1587 42.8754 85.1457 42.8754 85.1371C42.8754 85.1241 42.8754 85.1111 42.8754 85.0981L43.694 85.0786C43.694 85.0872 43.694 85.0981 43.694 85.1111C43.694 85.1197 43.694 85.1306 43.694 85.1435C43.694 85.4987 43.785 85.8192 43.9669 86.105C44.1531 86.3865 44.3935 86.6096 44.688 86.7742C44.9825 86.9388 45.2986 87.021 45.6365 87.021C46.1908 87.021 46.6564 86.8326 47.0332 86.4558C47.4143 86.0747 47.6049 85.49 47.6049 84.7018C47.6049 83.9092 47.4165 83.3267 47.0397 82.9542C46.6629 82.5774 46.1952 82.389 45.6365 82.389C45.2986 82.389 44.9825 82.4713 44.688 82.6359C44.3935 82.7961 44.1531 83.017 43.9669 83.2985C43.785 83.5757 43.694 83.894 43.694 84.2535L42.8754 84.221C42.8754 83.619 43.0162 83.0885 43.2977 82.6294C43.5836 82.166 43.956 81.8043 44.4151 81.5445C44.8742 81.2846 45.3723 81.1547 45.9093 81.1547C46.468 81.1547 46.9856 81.2933 47.462 81.5705C47.9384 81.8433 48.3217 82.2439 48.6119 82.7723C48.9064 83.3007 49.0536 83.9439 49.0536 84.7018C49.0536 85.477 48.9107 86.1332 48.6249 86.6702C48.339 87.2073 47.9579 87.6144 47.4815 87.8916C47.0051 88.1644 46.481 88.3009 45.9093 88.3009ZM50.5521 91.1009C50.3659 91.1009 50.1948 91.09 50.0389 91.0684C49.8873 91.051 49.7942 91.0337 49.7595 91.0164V89.8665C49.8158 89.8925 49.9089 89.9142 50.0389 89.9315C50.1731 89.9488 50.3117 89.9575 50.4546 89.9575C50.7102 89.9575 50.9289 89.9055 51.1108 89.8016C51.297 89.6976 51.4529 89.5525 51.5785 89.3663C51.7085 89.1844 51.8124 88.9765 51.8904 88.7426L52.0658 88.2229L49.6881 81.2651H51.1563L52.9298 87.112H52.7479L54.476 81.2651H55.9247L53.4495 88.6712C53.298 89.1346 53.1117 89.5482 52.8908 89.912C52.67 90.2801 52.3754 90.5703 52.0073 90.7825C51.6392 90.9947 51.1541 91.1009 50.5521 91.1009Z" fill="#828282"/>
<g clip-path="url(#clip0_101_125)">
<path d="M17.8867 34.4083C17.8867 24.4874 25.929 16.4452 35.8498 16.4452C45.7707 16.4452 53.8129 24.4874 53.8129 34.4083C53.8129 44.3291 45.7707 52.3714 35.8498 52.3714C25.929 52.3714 17.8867 44.3291 17.8867 34.4083Z" fill="white"/>
<path d="M30.559 30.05C30.559 31.2826 29.9666 32.2814 29.2357 32.2814C28.5047 32.2814 27.9116 31.2826 27.9116 30.05C27.9116 28.8174 28.5047 27.8193 29.2357 27.8193C29.9666 27.8193 30.559 28.8181 30.559 30.05Z" fill="#EF5DA8"/>
<path d="M43.7915 30.05C43.7915 31.2826 43.1984 32.2814 42.4674 32.2814C41.7365 32.2814 41.144 31.2826 41.144 30.05C41.144 28.8174 41.7365 27.8193 42.4674 27.8193C43.1984 27.8193 43.7915 28.8181 43.7915 30.05Z" fill="#EF5DA8"/>
<path d="M23.7795 36.1066C24.4641 42.1689 29.6055 46.8805 35.8501 46.8805C42.0947 46.8805 47.2361 42.1689 47.9206 36.1066H23.7795Z" fill="#EF5DA8"/>
</g>
<defs>
<filter id="filter0_d_101_125" x="0.20899" y="0.785034" width="71.8169" height="74.9183" filterUnits="userSpaceOnUse" color-interpolation-filters="sRGB">
<feFlood flood-opacity="0" result="BackgroundImageFix"/>
<feColorMatrix in="SourceAlpha" type="matrix" values="0 0 0 0 0 0 0 0 0 0 0 0 0 0 0 0 0 0 127 0" result="hardAlpha"/>
<feOffset dy="3.85986"/>
<feGaussianBlur stdDeviation="1.92993"/>
<feComposite in2="hardAlpha" operator="out"/>
<feColorMatrix type="matrix" values="0 0 0 0 0.937255 0 0 0 0 0.364706 0 0 0 0 0.658823 0 0 0 0.15 0"/>
<feBlend mode="normal" in2="BackgroundImageFix" result="effect1_dropShadow_101_125"/>
<feBlend mode="normal" in="SourceGraphic" in2="effect1_dropShadow_101_125" result="shape"/>
</filter>
<clipPath id="clip0_101_125">
<rect width="35.9262" height="35.9262" fill="white" transform="translate(17.8867 16.4452)"/>
</clipPath>
</defs>
</svg>
