<svg width="73" height="92" viewBox="0 0 73 92" fill="none" xmlns="http://www.w3.org/2000/svg">
<g filter="url(#filter0_d_101_119)">
<rect x="4.1521" y="0.785034" width="64.0971" height="67.1985" rx="17.3241" fill="#AEAFF7"/>
</g>
<path d="M28.8177 84.7732C28.8177 85.1717 28.744 85.5766 28.5968 85.9881C28.4495 86.3995 28.2265 86.7807 27.9276 87.1315C27.6288 87.4823 27.252 87.766 26.7972 87.9825C26.3425 88.1947 25.8076 88.3009 25.1926 88.3009C24.3567 88.3009 23.6443 88.0908 23.0552 87.6707C22.4706 87.2463 22.0245 86.6637 21.717 85.9231C21.4095 85.1825 21.2557 84.3336 21.2557 83.3765C21.2557 82.415 21.4095 81.5661 21.717 80.8299C22.0245 80.0893 22.4706 79.5089 23.0552 79.0888C23.6443 78.6687 24.3567 78.4586 25.1926 78.4586C25.8899 78.4586 26.4832 78.5951 26.9726 78.8679C27.4664 79.1408 27.8583 79.4916 28.1485 79.9203C28.443 80.3491 28.6379 80.7952 28.7332 81.2586C28.7895 81.5098 28.8177 81.748 28.8177 81.9732H27.4014C27.4014 81.852 27.3906 81.7199 27.3689 81.577C27.3213 81.2305 27.2044 80.9121 27.0181 80.622C26.8362 80.3318 26.5915 80.1001 26.284 79.9268C25.9808 79.7536 25.617 79.667 25.1926 79.667C24.6989 79.667 24.2636 79.8056 23.8868 80.0828C23.51 80.3556 23.2155 80.7671 23.0033 81.3171C22.7954 81.8671 22.6914 82.5536 22.6914 83.3765C22.6914 84.1951 22.7954 84.8815 23.0033 85.4359C23.2155 85.9859 23.51 86.4017 23.8868 86.6832C24.2636 86.9604 24.6989 87.099 25.1926 87.099C25.5521 87.099 25.8682 87.034 26.1411 86.9041C26.4139 86.7742 26.6435 86.5988 26.8297 86.3779C27.016 86.157 27.1567 85.908 27.252 85.6308C27.3516 85.3536 27.4014 85.0678 27.4014 84.7732H28.8177ZM32.7449 88.3009C32.2252 88.3009 31.7683 88.2186 31.3741 88.054C30.9843 87.8894 30.6812 87.6534 30.4646 87.3459C30.2481 87.0384 30.1398 86.6681 30.1398 86.235C30.1398 85.7715 30.2611 85.3882 30.5036 85.0851C30.7505 84.7819 31.0883 84.548 31.5171 84.3835C31.9502 84.2145 32.4417 84.1041 32.9918 84.0521C33.8103 83.9698 34.3864 83.8897 34.7198 83.8118C35.0577 83.7338 35.2266 83.606 35.2266 83.4285C35.2266 83.4241 35.2266 83.4198 35.2266 83.4155C35.2266 83.0647 35.0772 82.7983 34.7783 82.6164C34.4795 82.4345 34.0529 82.3435 33.4985 82.3435C32.9138 82.3435 32.4612 82.4475 32.1407 82.6554C31.8246 82.8589 31.6665 83.1838 31.6665 83.6299H30.2827C30.2827 83.1015 30.4191 82.6532 30.692 82.2851C30.9692 81.9169 31.3503 81.6376 31.8354 81.447C32.3205 81.2521 32.877 81.1547 33.505 81.1547C34.081 81.1547 34.6051 81.2435 35.0772 81.421C35.5536 81.5943 35.9325 81.8541 36.214 82.2006C36.4956 82.5471 36.6363 82.978 36.6363 83.4934C36.6363 83.5844 36.6363 83.6753 36.6363 83.7663C36.6363 83.8529 36.6363 83.9417 36.6363 84.0326V86.7872C36.6363 86.9474 36.6428 87.1033 36.6558 87.2549C36.6688 87.4022 36.6926 87.5343 36.7273 87.6512C36.7662 87.7855 36.8117 87.8959 36.8637 87.9825C36.92 88.0691 36.9655 88.1298 37.0001 88.1644H35.5969C35.5709 88.1384 35.5319 88.0843 35.4799 88.002C35.4323 87.9154 35.389 87.8158 35.35 87.7032C35.311 87.5949 35.2807 87.4715 35.2591 87.3329C35.2417 87.19 35.2331 87.0362 35.2331 86.8716L35.4929 87.0535C35.363 87.3047 35.1659 87.5234 34.9017 87.7097C34.6419 87.8959 34.3279 88.041 33.9598 88.1449C33.5959 88.2489 33.191 88.3009 32.7449 88.3009ZM33.0372 87.1315C33.44 87.1315 33.806 87.0687 34.1352 86.9431C34.4686 86.8132 34.735 86.6183 34.9342 86.3584C35.1335 86.0942 35.2331 85.7629 35.2331 85.3644V84.221L35.5644 84.6563C35.2872 84.7646 34.9472 84.8534 34.5444 84.9227C34.146 84.9876 33.7345 85.0418 33.3101 85.0851C32.7254 85.1371 32.2858 85.2388 31.9913 85.3904C31.6968 85.5377 31.5495 85.7845 31.5495 86.131C31.5495 86.4645 31.6708 86.7157 31.9133 86.8846C32.1602 87.0492 32.5348 87.1315 33.0372 87.1315ZM39.8357 78.0104V88.1644H38.4454V78.0104H39.8357ZM45.9913 88.1644V85.241C45.9913 84.9768 45.9913 84.7494 45.9913 84.5589C45.9913 84.364 45.9913 84.1994 45.9913 84.0651C45.9913 83.8962 45.9783 83.7165 45.9523 83.5259C45.9307 83.3353 45.8787 83.1578 45.7964 82.9932C45.7185 82.8243 45.595 82.6879 45.4261 82.5839C45.2572 82.48 45.0255 82.428 44.731 82.428C44.4365 82.428 44.1874 82.4865 43.9839 82.6034C43.7803 82.7203 43.6157 82.8763 43.4901 83.0712C43.3645 83.2617 43.2736 83.4761 43.2173 83.7143C43.161 83.9482 43.1328 84.1842 43.1328 84.4224L42.5352 84.0976C42.5352 83.5562 42.6413 83.0647 42.8535 82.6229C43.07 82.1768 43.3732 81.8217 43.763 81.5575C44.1571 81.2889 44.6205 81.1547 45.1533 81.1547C45.6946 81.1547 46.1277 81.2673 46.4526 81.4925C46.7817 81.7134 47.0199 82.0166 47.1672 82.402C47.3144 82.7831 47.3881 83.2162 47.3881 83.7013C47.3881 83.8789 47.3881 84.1106 47.3881 84.3964C47.3881 84.6823 47.3881 85.0136 47.3881 85.3904V88.1644H45.9913ZM41.7231 88.1644V81.2651H43.1328V88.1644H41.7231ZM50.24 88.1644V85.2475C50.24 84.9616 50.24 84.7234 50.24 84.5329C50.24 84.338 50.24 84.1756 50.24 84.0456C50.24 83.8681 50.2292 83.6862 50.2075 83.4999C50.1859 83.3094 50.1339 83.134 50.0516 82.9737C49.9693 82.8135 49.8416 82.6835 49.6683 82.5839C49.4994 82.48 49.2634 82.428 48.9602 82.428C48.6614 82.428 48.4102 82.4865 48.2066 82.6034C48.0074 82.716 47.8471 82.8676 47.7259 83.0582C47.6046 83.2444 47.518 83.4501 47.466 83.6753C47.414 83.9005 47.3881 84.1236 47.3881 84.3445L46.7904 84.0326C46.7904 83.5129 46.8943 83.0343 47.1022 82.5969C47.3144 82.1595 47.6133 81.8108 47.9987 81.551C48.3885 81.2868 48.8498 81.1547 49.3825 81.1547C49.9022 81.1547 50.3288 81.2586 50.6623 81.4665C50.9958 81.6744 51.2427 81.9624 51.4029 82.3306C51.5632 82.6987 51.6433 83.1253 51.6433 83.6104C51.6433 83.7966 51.6433 84.0305 51.6433 84.312C51.6433 84.5935 51.6433 84.9205 51.6433 85.293V88.1644H50.24Z" fill="#828282"/>
<path d="M54.7729 33.6339C54.7521 33.4473 54.7314 33.2504 54.7003 33.0638C54.6485 32.6492 54.607 32.2243 54.5448 31.7993C54.1199 28.7935 53.0108 26.0364 51.2695 23.6214C49.777 21.538 47.8802 19.8486 45.6518 18.6048C43.6306 17.475 41.4022 16.7702 39.0182 16.5007C38.3341 16.4178 37.6293 16.3763 36.9453 16.3763C35.7326 16.3763 34.5302 16.5007 33.3279 16.7495V16.7391L33.1517 16.7909C32.8719 16.8531 32.6024 16.9153 32.3225 16.9879C31.9701 17.0811 31.6073 17.1952 31.2549 17.3092C30.9336 17.4025 30.6641 17.4854 30.405 17.5787C27.5961 18.5841 25.15 20.2735 23.1288 22.6056C21.1077 24.9274 19.7395 27.6119 19.0451 30.5659C18.5579 32.6492 18.4336 34.7326 18.6616 36.7641C18.9 38.8371 19.4286 40.7753 20.237 42.5166C21.1181 44.403 22.3204 46.0821 23.8026 47.5021C25.4609 49.0879 27.4095 50.3214 29.7624 51.2749C30.7885 51.6895 31.7939 51.8865 32.7267 52.0316C33.2139 52.1352 33.7218 52.2181 34.2193 52.2803C34.3955 52.301 34.5613 52.3218 34.7375 52.3425C35.2765 52.4358 35.9606 52.4773 36.7794 52.4773C37.1111 52.4773 37.4324 52.4669 37.733 52.4565L37.4842 52.5602L38.5622 52.4151C39.0182 52.384 39.381 52.3321 39.5676 52.3011L39.6194 52.2907C39.6505 52.2803 39.6712 52.27 39.692 52.2596C41.0601 52.0627 42.3765 51.7413 43.5995 51.2853C45.2268 50.6738 46.7401 49.8549 48.0772 48.8288C49.6733 47.6058 51.0311 46.1236 52.0884 44.403C53.1456 42.7032 53.8711 40.8997 54.2546 39.0236C54.379 38.4017 54.4723 37.7695 54.5552 37.1476C54.5967 36.8574 54.6381 36.5775 54.6796 36.2873C54.6899 36.2355 54.7003 36.1733 54.7107 36.1215L54.7314 36.0282L54.7418 33.6961L54.7729 33.6339ZM40.5522 21.9112C41.8997 21.9112 43.0191 23.041 43.0087 24.3677C42.9984 25.6944 41.8789 26.8241 40.5522 26.8241C39.2255 26.8241 38.1061 25.6944 38.1061 24.3677C38.1165 23.041 39.2359 21.9112 40.5522 21.9112ZM43.2782 48.6008C42.3454 50.0208 41.1016 51.0573 39.5987 51.6895C39.267 51.731 38.9249 51.7724 38.5829 51.8035C37.3806 51.9072 36.1368 51.8968 34.8619 51.7621C34.4162 51.6792 33.9809 51.617 33.5559 51.5548C33.3279 51.5237 33.0999 51.4926 32.8718 51.4511C31.5659 51.1816 30.3014 50.7671 29.1094 50.2281C27.8034 49.6373 26.5907 48.891 25.5024 48.0203C24.5074 47.2223 23.616 46.3309 22.849 45.3566C21.9265 44.1853 21.1595 42.9001 20.5791 41.5216C20.0401 40.226 19.6773 38.9925 19.47 37.728C19.3975 37.2512 19.3353 36.7537 19.2731 36.2666C19.242 36.0489 19.2213 35.8312 19.1902 35.6136V33.5613C19.1902 33.551 19.1902 33.551 19.2006 33.5406C19.2109 33.4888 19.2317 33.4266 19.2317 33.354C19.3457 31.9444 19.6151 30.5659 20.0297 29.2806C20.5687 27.6119 21.3461 26.0364 22.3618 24.5957C23.5849 22.8544 25.1085 21.3411 26.8809 20.1077C28.3113 19.1127 29.8453 18.3457 31.4519 17.8067C31.7213 17.7238 32.0012 17.6512 32.2811 17.5787C32.4158 17.5372 32.5609 17.5061 32.6956 17.4647C32.6542 17.7652 32.6231 18.0555 32.5816 18.3457C32.4573 19.2785 32.3432 20.1699 32.25 21.0613C32.0737 22.6056 31.9286 24.4506 32.1463 26.337C32.3329 27.9747 32.7786 29.3324 33.4937 30.5037C34.1778 31.6231 35.0277 32.5767 36.0331 33.3229C37.0385 34.0796 38.0854 34.8155 39.153 35.4892C39.495 35.7069 39.8578 35.8623 40.2206 36.0178C40.4693 36.1215 40.7077 36.2251 40.9357 36.3495C42.4283 37.1372 43.5062 38.0804 44.2318 39.2413C44.8848 40.2881 45.1957 41.4801 45.1542 42.7757C45.061 44.8902 44.4391 46.8387 43.2782 48.6008Z" fill="white"/>
<path d="M33.0604 39.1675H33.019C31.3606 39.1675 30.065 40.432 30.0132 42.1215C29.9717 43.7591 31.2984 45.1273 32.9775 45.1688C32.9982 45.1688 33.0293 45.1688 33.0604 45.1688C34.667 45.1688 35.9937 43.8317 36.0248 42.1837C36.0352 41.3959 35.7346 40.6393 35.1749 40.0692C34.6152 39.4992 33.8689 39.1778 33.0604 39.1675Z" fill="white"/>
<defs>
<filter id="filter0_d_101_119" x="0.292242" y="0.785034" width="71.8169" height="74.9183" filterUnits="userSpaceOnUse" color-interpolation-filters="sRGB">
<feFlood flood-opacity="0" result="BackgroundImageFix"/>
<feColorMatrix in="SourceAlpha" type="matrix" values="0 0 0 0 0 0 0 0 0 0 0 0 0 0 0 0 0 0 127 0" result="hardAlpha"/>
<feOffset dy="3.85986"/>
<feGaussianBlur stdDeviation="1.92993"/>
<feComposite in2="hardAlpha" operator="out"/>
<feColorMatrix type="matrix" values="0 0 0 0 0.682353 0 0 0 0 0.686275 0 0 0 0 0.968627 0 0 0 0.15 0"/>
<feBlend mode="normal" in2="BackgroundImageFix" result="effect1_dropShadow_101_119"/>
<feBlend mode="normal" in="SourceGraphic" in2="effect1_dropShadow_101_119" result="shape"/>
</filter>
</defs>
</svg>
