<svg width="73" height="92" viewBox="0 0 73 92" fill="none" xmlns="http://www.w3.org/2000/svg">
<g filter="url(#filter0_d_101_135)">
<rect x="4.23535" y="0.785034" width="64.0971" height="67.1985" rx="17.3241" fill="#A0E3E2"/>
</g>
<path d="M24.3156 78.5821H26.7258V88.1644H25.3876V79.5695L25.4265 79.5825L23.1722 88.1644H21.2363L18.9625 79.576L19.0015 79.5565V88.1644H17.6567V78.5821H20.0669L22.2173 87.2549H22.1523L24.3156 78.5821ZM31.0218 88.3009C30.502 88.3009 30.0451 88.2186 29.651 88.054C29.2612 87.8894 28.958 87.6534 28.7415 87.3459C28.5249 87.0384 28.4167 86.6681 28.4167 86.235C28.4167 85.7715 28.5379 85.3882 28.7805 85.0851C29.0273 84.7819 29.3652 84.548 29.7939 84.3835C30.227 84.2145 30.7186 84.1041 31.2686 84.0521C32.0872 83.9698 32.6632 83.8897 32.9967 83.8118C33.3345 83.7338 33.5034 83.606 33.5034 83.4285C33.5034 83.4241 33.5034 83.4198 33.5034 83.4155C33.5034 83.0647 33.354 82.7983 33.0552 82.6164C32.7563 82.4345 32.3297 82.3435 31.7754 82.3435C31.1907 82.3435 30.7381 82.4475 30.4176 82.6554C30.1014 82.8589 29.9433 83.1838 29.9433 83.6299H28.5596C28.5596 83.1015 28.696 82.6532 28.9689 82.2851C29.2461 81.9169 29.6272 81.6376 30.1123 81.447C30.5973 81.2521 31.1539 81.1547 31.7819 81.1547C32.3579 81.1547 32.8819 81.2435 33.354 81.421C33.8304 81.5943 34.2094 81.8541 34.4909 82.2006C34.7724 82.5471 34.9132 82.978 34.9132 83.4934C34.9132 83.5844 34.9132 83.6753 34.9132 83.7663C34.9132 83.8529 34.9132 83.9417 34.9132 84.0326V86.7872C34.9132 86.9474 34.9197 87.1033 34.9327 87.2549C34.9457 87.4022 34.9695 87.5343 35.0041 87.6512C35.0431 87.7855 35.0886 87.8959 35.1406 87.9825C35.1969 88.0691 35.2423 88.1298 35.277 88.1644H33.8737C33.8478 88.1384 33.8088 88.0843 33.7568 88.002C33.7092 87.9154 33.6659 87.8158 33.6269 87.7032C33.5879 87.5949 33.5576 87.4715 33.5359 87.3329C33.5186 87.19 33.5099 87.0362 33.5099 86.8716L33.7698 87.0535C33.6399 87.3047 33.4428 87.5234 33.1786 87.7097C32.9188 87.8959 32.6048 88.041 32.2366 88.1449C31.8728 88.2489 31.4679 88.3009 31.0218 88.3009ZM31.3141 87.1315C31.7169 87.1315 32.0829 87.0687 32.412 86.9431C32.7455 86.8132 33.0119 86.6183 33.2111 86.3584C33.4103 86.0942 33.5099 85.7629 33.5099 85.3644V84.221L33.8413 84.6563C33.5641 84.7646 33.2241 84.8534 32.8213 84.9227C32.4229 84.9876 32.0114 85.0418 31.587 85.0851C31.0023 85.1371 30.5627 85.2388 30.2682 85.3904C29.9737 85.5377 29.8264 85.7845 29.8264 86.131C29.8264 86.4645 29.9477 86.7157 30.1902 86.8846C30.4371 87.0492 30.8117 87.1315 31.3141 87.1315ZM41.5362 88.1644V84.9811C41.5362 84.7949 41.5362 84.6368 41.5362 84.5069C41.5362 84.377 41.5362 84.2557 41.5362 84.1431C41.5362 83.8053 41.4842 83.5086 41.3803 83.2531C41.2763 82.9932 41.1052 82.7918 40.867 82.6489C40.6288 82.5016 40.3105 82.428 39.9121 82.428C39.5612 82.428 39.2429 82.5146 38.9571 82.6879C38.6755 82.8611 38.4503 83.0971 38.2814 83.396C38.1168 83.6905 38.0346 84.0261 38.0346 84.4029L37.4304 84.1041C37.4304 83.5454 37.5625 83.0452 37.8267 82.6034C38.0909 82.1573 38.4438 81.8043 38.8856 81.5445C39.3317 81.2846 39.8189 81.1547 40.3473 81.1547C40.893 81.1547 41.3586 81.2608 41.7441 81.473C42.1339 81.6809 42.4305 81.9797 42.6341 82.3695C42.842 82.755 42.9459 83.2162 42.9459 83.7533C42.9459 83.9525 42.9459 84.1734 42.9459 84.4159C42.9459 84.6585 42.9459 84.8923 42.9459 85.1176V88.1644H41.5362ZM36.6248 88.1644V81.2651H38.0346V88.1644H36.6248ZM44.7396 88.1644V81.2651H46.1298V88.1644H44.7396ZM45.4412 79.8359C45.1987 79.8359 44.9886 79.7709 44.811 79.641C44.6378 79.5067 44.5512 79.3227 44.5512 79.0888C44.5512 78.8592 44.6378 78.6795 44.811 78.5496C44.9886 78.4153 45.1987 78.3482 45.4412 78.3482C45.6794 78.3482 45.8851 78.4153 46.0584 78.5496C46.2359 78.6795 46.3247 78.8592 46.3247 79.0888C46.3247 79.3227 46.2359 79.5067 46.0584 79.641C45.8851 79.7709 45.6794 79.8359 45.4412 79.8359ZM51.3521 88.3009C50.6592 88.3009 50.0377 88.1558 49.4876 87.8656C48.9419 87.5711 48.511 87.1531 48.1948 86.6118C47.883 86.0704 47.7271 85.4337 47.7271 84.7018C47.7271 83.9698 47.883 83.3397 48.1948 82.8113C48.511 82.2786 48.9419 81.8693 49.4876 81.5835C50.0377 81.2976 50.6592 81.1547 51.3521 81.1547C51.8762 81.1547 52.3418 81.2348 52.7489 81.3951C53.156 81.551 53.5003 81.7589 53.7818 82.0187C54.0633 82.2786 54.2777 82.5644 54.425 82.8763C54.5722 83.1881 54.6459 83.4999 54.6459 83.8118C54.6459 83.8161 54.6459 83.8226 54.6459 83.8312C54.6459 83.8399 54.6459 83.8486 54.6459 83.8572H53.2491C53.2491 83.8356 53.2469 83.8118 53.2426 83.7858C53.2383 83.7555 53.2339 83.7273 53.2296 83.7013C53.195 83.4458 53.0954 83.2184 52.9308 83.0192C52.7662 82.82 52.5496 82.6619 52.2811 82.5449C52.0126 82.428 51.6986 82.3695 51.3391 82.3695C50.945 82.3695 50.5812 82.4562 50.2477 82.6294C49.9186 82.7983 49.6544 83.056 49.4551 83.4025C49.2559 83.749 49.1563 84.1821 49.1563 84.7018C49.1563 85.2215 49.2537 85.6589 49.4486 86.0141C49.6479 86.3649 49.9121 86.6312 50.2412 86.8132C50.5747 86.9951 50.9407 87.086 51.3391 87.086C51.7679 87.086 52.1187 87.021 52.3916 86.8911C52.6644 86.7568 52.8701 86.5793 53.0087 86.3584C53.1473 86.1332 53.2274 85.8906 53.2491 85.6308H54.6459C54.6459 85.9426 54.5744 86.2588 54.4315 86.5793C54.2885 86.8954 54.0785 87.1835 53.8013 87.4433C53.5241 87.7032 53.1798 87.9111 52.7684 88.067C52.3612 88.2229 51.8892 88.3009 51.3521 88.3009Z" fill="#828282"/>
<path d="M49.7986 36.6413C48.7801 36.1269 47.6484 35.8594 46.5374 35.8594C44.1197 35.8594 42.0828 37.1145 41.2186 39.1309C40.5293 40.7358 40.6219 43.174 41.4346 44.6657C41.9593 45.6328 43.1424 46.6616 44.9119 46.6616C45.2617 46.6616 45.6218 46.6204 45.9818 46.5484C46.9592 46.3427 48.3377 44.8818 48.6669 43.7193C48.9138 42.8448 47.9674 41.3531 46.99 40.6535C46.918 40.6021 46.8357 40.6021 46.774 40.6021C46.6505 40.6021 46.0333 40.6227 45.7349 41.0033C45.632 41.1268 45.5189 41.3531 45.5909 41.6823L45.6115 41.7646L45.6732 41.816C46.3007 42.423 46.63 43.1534 46.4962 43.637C46.4036 43.9662 46.1156 44.1925 45.632 44.316C45.1691 44.2337 44.5107 43.8427 44.2843 43.565C43.8625 43.0403 43.4819 41.7543 43.6568 41.0547C43.9654 39.8202 45.2205 38.956 46.7225 38.956C47.7616 38.956 48.6875 39.3984 49.2636 40.17C50.2101 41.4457 50.8891 43.8736 50.3335 45.0773C49.6443 46.5896 47.7205 48.1636 45.8584 48.7397C45.3851 48.8837 44.9016 48.9557 44.4387 48.9557C42.628 48.9557 40.8585 47.8344 39.4697 45.8077C37.7928 43.3695 37.7002 40.8078 39.1919 38.3799C39.8195 37.3717 40.6836 36.4664 41.5272 35.592C41.9285 35.1804 42.34 34.7586 42.7206 34.3266C45.3234 31.374 45.951 27.9687 44.6033 24.1931C43.451 20.9525 40.91 18.967 37.2578 18.432C36.9183 18.3806 36.5788 18.36 36.2393 18.36C33.0193 18.36 29.9432 20.4381 28.7601 23.401C27.5565 26.4153 28.4927 29.7074 31.0852 31.6003C32.0728 32.3204 33.3485 32.7114 34.6653 32.7114C36.3834 32.7114 37.9574 32.0324 38.9039 30.8905C40.7351 28.6683 40.7248 26.1478 38.8627 24.4812C38.2352 23.9154 37.1447 23.7096 36.3319 23.7096C35.9204 23.7096 35.5603 23.761 35.2826 23.8434C34.6447 24.0491 33.2559 25.3454 33.2456 26.1787C33.2456 26.4976 33.4205 26.7445 33.7497 26.8577L33.8011 26.8782H33.8526C33.9863 26.8782 34.0686 26.7959 34.2229 26.6519C34.5419 26.3433 35.2106 25.7157 36.1262 25.7157C36.4657 25.7157 36.8257 25.8083 37.1755 25.9832C37.4739 26.1375 37.5356 26.5079 37.5459 26.7239C37.5767 27.4646 37.1035 28.5346 36.2702 29.0387C35.8072 29.3164 35.0974 29.4913 34.4184 29.4913C34.0275 29.4913 33.6674 29.4399 33.3896 29.3267C32.402 28.9564 31.723 28.1642 31.4555 27.084C31.1263 25.7363 31.5378 24.224 32.5152 23.1335C33.4925 22.0533 34.8505 21.4566 36.3422 21.4566C38.1631 21.4566 39.9121 22.3619 41.0128 23.8845C42.4428 25.8495 42.6589 28.3802 41.589 30.6435C40.5087 32.948 38.3586 34.4089 35.8484 34.5632C35.6735 34.5735 35.4883 34.5735 35.3031 34.5735C33.9657 34.5735 32.5769 34.2957 31.2395 34.0282C30.3547 33.8533 29.4391 33.6681 28.5441 33.5653C28.1737 33.5241 27.7931 33.5035 27.4227 33.5035C22.6698 33.5035 18.5753 36.9808 17.886 41.5794C17.2173 46.0649 20.2213 50.2726 24.7273 51.1676C25.1903 51.2602 25.6738 51.3116 26.1368 51.3116C29.1819 51.3116 31.8259 49.4187 32.8649 46.4867C33.9452 43.4518 32.6901 40.2935 30.005 39.2955C29.4083 39.0795 28.6984 38.9663 27.9371 38.9663C26.9083 38.9663 25.8899 39.1721 25.0566 39.5322C24.0072 39.9951 23.0813 41.7749 23.2048 43.1123C23.3591 44.9024 24.2232 45.3447 25.0463 45.7665L25.1389 45.818C25.4269 45.962 25.9619 46.1369 26.5277 46.1369C27.4022 46.1369 27.9783 45.7357 28.1429 45.0052L28.1532 44.9744C28.2766 43.8016 27.2993 43.3078 26.6512 42.9683C26.4454 42.8654 26.0956 42.6905 26.075 42.5979C26.075 42.4642 26.3528 42.3716 26.7437 42.3716C27.6593 42.3716 28.8939 42.8345 29.2231 43.4929C29.6346 44.3365 29.7375 45.746 29.1099 46.6924C28.4001 47.7521 27.4536 48.287 26.2705 48.287C25.3858 48.287 24.3878 47.9681 23.3899 47.3817C21.0443 45.9826 20.2316 42.7728 21.569 40.2214C22.9064 37.6701 25.1594 36.4047 28.04 36.5796C31.188 36.7648 33.5131 38.5034 34.7785 41.6103C35.0665 42.3304 35.2826 43.102 35.4883 43.8427C35.7558 44.8303 36.0439 45.8488 36.5068 46.7747C38.2043 50.1388 41.198 51.9906 44.9428 51.9906C45.0765 51.9906 45.2205 51.9906 45.3543 51.9803C49.243 51.8466 52.0516 49.8713 53.461 46.2706C54.8807 42.6288 53.2758 38.4005 49.7986 36.6413Z" fill="white"/>
<defs>
<filter id="filter0_d_101_135" x="0.375494" y="0.785034" width="71.8169" height="74.9183" filterUnits="userSpaceOnUse" color-interpolation-filters="sRGB">
<feFlood flood-opacity="0" result="BackgroundImageFix"/>
<feColorMatrix in="SourceAlpha" type="matrix" values="0 0 0 0 0 0 0 0 0 0 0 0 0 0 0 0 0 0 127 0" result="hardAlpha"/>
<feOffset dy="3.85986"/>
<feGaussianBlur stdDeviation="1.92993"/>
<feComposite in2="hardAlpha" operator="out"/>
<feColorMatrix type="matrix" values="0 0 0 0 0.627451 0 0 0 0 0.890196 0 0 0 0 0.886274 0 0 0 0.15 0"/>
<feBlend mode="normal" in2="BackgroundImageFix" result="effect1_dropShadow_101_135"/>
<feBlend mode="normal" in="SourceGraphic" in2="effect1_dropShadow_101_135" result="shape"/>
</filter>
</defs>
</svg>
